# xmcd
#
# Track frame offsets:
#	150
#	15909
#	35720
#	55115
#	73799
#	92197
#	109825
#	124677
#	140836
#	157980
#	160438
#	175439
#	191339
#	205421
#
# Disc length: 2965
#
# Revision: 1
# Processed by: cddbd v1.5.1PL0 Copyright (c) Steve Scherf et al.
# Submitted via: dBpowerAMP V4.0
# Normalized: r0:TRMNUM
#
DISCID=c70b930e
DTITLE=Ligabue - Miss mondo
DYEAR=1900
DGENRE=Blues
TTITLE0=si viene e si va
TTITLE1=uno dei danti
TTITLE2=almeno credo
TTITLE3=E
TTITLE4=baby e' un mondo super
TTITLE5=una vita da meridiano
TTITLE6=da adesso in poi
TTITLE7=l'odore del sesso
TTITLE8=kay e' stata qui
TTITLE9=qualcuno ha visto per caso 
TTITLE10=sulla mia strada
TTITLE11=forse mi trovo 
TTITLE12=miss mondo 
TTITLE13=la porta dei sogni
EXTD=
EXTT0=
EXTT1=
EXTT2=
EXTT3=
EXTT4=
EXTT5=
EXTT6=
EXTT7=
EXTT8=
EXTT9=
EXTT10=
EXTT11=
EXTT12=
EXTT13=
PLAYORDER=
